<?xml version="1.0" encoding="UTF-8"?>
<!DOCTYPE svg PUBLIC "-//W3C//DTD SVG 1.1//EN" "http://www.w3.org/Graphics/SVG/1.1/DTD/svg11.dtd">
<svg xmlns="http://www.w3.org/2000/svg" version="1.1" width="521px" height="408px" style="shape-rendering:geometricPrecision; text-rendering:geometricPrecision; image-rendering:optimizeQuality; fill-rule:evenodd; clip-rule:evenodd" xmlns:xlink="http://www.w3.org/1999/xlink">
<g><path style="opacity:0.988" fill="#fefefe" d="M 34.5,19.5 C 92.8343,19.3333 151.168,19.5 209.5,20C 227.702,24.8686 239.202,36.3686 244,54.5C 244.667,160.833 244.667,267.167 244,373.5C 241.058,383.443 234.558,389.609 224.5,392C 208.833,392.667 193.167,392.667 177.5,392C 167.442,389.609 160.942,383.443 158,373.5C 157.667,287.833 157.333,202.167 157,116.5C 156.786,112.562 154.953,109.728 151.5,108C 136.833,107.333 122.167,107.333 107.5,108C 105.333,108.833 103.833,110.333 103,112.5C 102.667,197.5 102.333,282.5 102,367.5C 100.855,379.97 94.3545,388.137 82.5,392C 66.1667,392.667 49.8333,392.667 33.5,392C 23.5574,389.058 17.3908,382.558 15,372.5C 14.3333,261.5 14.3333,150.5 15,39.5C 18.3863,29.6156 24.8863,22.9489 34.5,19.5 Z"/></g>
<g><path style="opacity:0.989" fill="#fefefe" d="M 300.5,19.5 C 353.168,19.3333 405.834,19.5 458.5,20C 477.223,24.3893 489.056,35.8893 494,54.5C 494.667,89.5 494.667,124.5 494,159.5C 490.921,167.58 485.421,173.414 477.5,177C 460.9,178.623 444.233,178.956 427.5,178C 418.066,174.899 411.566,168.732 408,159.5C 407.667,145.167 407.333,130.833 407,116.5C 406.386,112.885 404.553,110.051 401.5,108C 386.833,107.333 372.167,107.333 357.5,108C 355.43,108.948 353.93,110.448 353,112.5C 351.848,143.62 351.348,174.787 351.5,206C 351.348,237.213 351.848,268.38 353,299.5C 354.728,302.953 357.562,304.786 361.5,305C 374.89,305.924 388.223,305.591 401.5,304C 403.667,303.167 405.167,301.667 406,299.5C 407.225,294.915 407.725,290.248 407.5,285.5C 391.933,288.63 380.433,283.296 373,269.5C 371.376,252.233 371.042,234.9 372,217.5C 375.994,206.414 383.827,199.914 395.5,198C 420.5,197.333 445.5,197.333 470.5,198C 482.542,199.372 490.376,205.872 494,217.5C 494.667,264.167 494.667,310.833 494,357.5C 489.056,376.111 477.223,387.611 458.5,392C 405.833,392.667 353.167,392.667 300.5,392C 281.333,387.5 269.5,375.667 265,356.5C 264.333,256.167 264.333,155.833 265,55.5C 269.681,36.3193 281.515,24.3193 300.5,19.5 Z"/></g>
</svg>
